<svg width="232" height="43" xmlns="http://www.w3.org/2000/svg"><g fill-rule="nonzero" fill="none"><g fill="#000"><path d="M23.726 16.734v3.068H21.23c.485.659 1.1 1.586 1.846 2.782.104.156.195.299.273.429.078.13.152.247.221.351l-3.224 1.924c-.676-1.317-1.551-2.808-2.626-4.472l2.262-1.014h-4.368c.33.59.68 1.278 1.053 2.067.373.789.637 1.417.793 1.885l-3.536 1.092a27.89 27.89 0 0 0-.754-2.106c-.33-.832-.624-1.5-.884-2.002l2.704-.936H4.018l2.132.728c-.243.71-.572 1.443-.988 2.197-.416.754-.927 1.642-1.534 2.665L.196 23.468c.988-1.179 1.785-2.4 2.392-3.666H.352v-3.068h9.802V15.72H1.782v-2.964h8.372v-.78H1.652V1.524h20.67v10.452h-8.476v.78h8.346v2.964h-8.346v1.014h9.88zM5.292 4.67v4.108h2.002a89.554 89.554 0 0 1-.715-1.196c-.39-.659-.715-1.144-.975-1.456L7.788 4.67H5.292zm2.704 4.108h2.158V4.67h-2.08c.399.485 1.014 1.404 1.846 2.756L7.996 8.778zm5.85 0h1.898l-1.768-1.404c.693-.728 1.378-1.63 2.054-2.704h-2.184v4.108zm4.836 0V4.67h-2.418l2.262 1.612c-.156.243-.58.823-1.274 1.742l-.572.754h2.002zm-8.398 11.05c.277.815.693 2.253 1.248 4.316l-3.744.702c-.139-1.005-.433-2.427-.884-4.264l3.38-.754zM35.53 7.27h-3.926V6.126h-5.33V2.72h5.33V1.212h3.926V2.72h4.966V1.212h3.952V2.72H49.7v3.406h-5.252v1.118h-3.952V6.126H35.53V7.27zm14.196 9.1v3.484h-9.75v5.2h-3.9v-5.2H26.3V16.37h5.46a58.268 58.268 0 0 0-3.302-3.614l1.924-1.482h-2.834V7.842H48.53v3.432h-2.808l1.924 1.534-3.536 3.562h5.616zm-16.432 0h2.782v-5.096h-4.16l3.354 3.536-1.976 1.56zm6.682-5.096v5.096h2.574l-1.898-1.586c.78-.676 1.924-1.846 3.432-3.51h-4.108zM74.296 24.716c-3.501-1.56-6.283-3.259-8.346-5.096v5.226h-3.848v-5.07a22.373 22.373 0 0 1-3.588 2.522c-1.335.763-2.947 1.56-4.836 2.392l-1.56-3.64c2.895-.988 5.243-2.037 7.046-3.146h-6.812v-3.38h9.75v-1.326h-7.696V1.472h19.24v11.726H65.95v1.326h9.776v3.38h-6.89a19.17 19.17 0 0 0 3.107 1.664c1.135.485 2.466.962 3.991 1.43l-1.638 3.718zM62.102 5.944V4.748H58.15v1.196h3.952zm3.848 0h3.952V4.748H65.95v1.196zm-7.8 2.86V10h3.952V8.804H58.15zm7.8 0V10h3.952V8.804H65.95zM92.47 16.838v4.836c0 .884-.104 1.551-.312 2.002-.208.45-.58.771-1.118.962-.537.19-1.317.286-2.34.286h-3.302l-.702-3.484a56.841 56.841 0 0 1-4.732 3.068l-1.924-3.12c2.67-1.577 4.68-2.955 6.032-4.134l-3.406.156-.728-3.536a91.282 91.282 0 0 0 6.37-2.808l-5.226.39-.728-3.198c.641-.225 1.4-.568 2.275-1.027.875-.46 1.738-.966 2.587-1.521l-1.196.052-4.342.13-.39-3.432c2.981-.052 6.582-.19 10.803-.416 4.22-.225 7.657-.477 10.309-.754l.624 3.432c-.919.104-2.349.217-4.29.338l2.444 2.548c-4.264 2.67-8.199 4.75-11.804 6.24l7.124-.442-1.118-1.17 2.756-2.262a648.443 648.443 0 0 1 5.59 5.876l-2.574 2.47-1.612-1.742-5.07.26zm-.156-9.126c1.473-.919 2.73-1.785 3.77-2.6l-5.122.312c-.797.59-1.582 1.14-2.353 1.651-.771.511-1.313.836-1.625.975l5.33-.338zm2.808 9.256c1.907 1.265 4.186 2.678 6.838 4.238l-1.924 3.224c-.919-.624-2.54-1.63-4.862-3.016l-2.054-1.248 2.002-3.198zm-6.708.052-3.64.182 2.08 2.6c-.503.416-1.17.919-2.002 1.508h2.288c.52 0 .862-.052 1.027-.156.165-.104.247-.312.247-.624v-3.51zM128.064 18.086l-.182 3.744c-.035 1.04-.295 1.772-.78 2.197-.485.425-1.343.637-2.574.637h-1.586c-1.144 0-1.963-.238-2.457-.715-.494-.477-.741-1.348-.741-2.613v-7.228l-1.222.052-.026.91c-.052 1.681-.225 3.09-.52 4.225a8.329 8.329 0 0 1-1.508 3.068c-.71.91-1.716 1.79-3.016 2.639l-1.95-2.548-6.89 1.404-.546-3.848 8.58-1.664.234 2.496c.52-.399.923-.845 1.209-1.339.286-.494.494-1.11.624-1.846.13-.737.212-1.703.247-2.899 0-.173.009-.303.026-.39l-1.846.104-.988-3.25a41.681 41.681 0 0 0 3.874-4.472h-3.38l1.118.546a46.754 46.754 0 0 1-2.314 3.952c-.919 1.421-1.664 2.505-2.236 3.25l3.068-.52.026 3.328-6.76 1.092-.884-3.484c.85-.936 1.733-2.089 2.652-3.458l-2.34.208-.78-3.536c1.508-1.82 2.8-4.143 3.874-6.968l3.51.962c-.416.953-.97 2.028-1.664 3.224-.693 1.196-1.248 2.063-1.664 2.6l1.248-.078.338-.676c.312-.537.563-1.023.754-1.456l1.924.936V3.37h5.2l-.624-2.288 4.394-.39.78 2.678h5.2v3.38h-7.332c-.884 1.179-2.02 2.574-3.406 4.186l5.122-.26a119.57 119.57 0 0 0-1.404-1.846l2.756-1.82c2.184 2.86 3.657 4.862 4.42 6.006l-2.886 2.002-.728-1.17-.702.052v6.578c0 .347.026.576.078.689.052.113.19.169.416.169h.494c.19 0 .33-.065.416-.195.087-.13.139-.377.156-.741.07-.919.095-1.924.078-3.016l3.12.702zM134.356 7.972c-1.335-2.028-2.461-3.666-3.38-4.914l2.99-2.236c.832 1.11 1.985 2.687 3.458 4.732l-3.068 2.418zm3.926-5.954h13.676v3.64h-13.676v-3.64zm14.716 9.594h-4.186v4.524c0 .295.03.472.091.533.06.06.212.091.455.091h.494c.347 0 .555-.052.624-.156.07-.104.104-.381.104-.832V13.25l3.016.65c0 1.265-.035 2.34-.104 3.224-.052 1.161-.308 1.954-.767 2.379-.46.425-1.244.637-2.353.637h-2.522c-1.057 0-1.803-.243-2.236-.728-.433-.485-.65-1.335-.65-2.548v-5.252h-1.3v.182c-.035 1.63-.19 2.942-.468 3.939-.277.997-.706 1.846-1.287 2.548-.58.702-1.408 1.417-2.483 2.145l-2.756-2.574c.97-.59 1.677-1.135 2.119-1.638.442-.503.732-1.07.871-1.703s.234-1.59.286-2.873v-.026h-2.808V8.076h15.86v3.536zm.962 9.178-.728 3.822h-11.31c-1.872 0-3.389-.195-4.55-.585-1.161-.39-2.089-1.01-2.782-1.859l-3.094 2.99-1.404-4.784 2.73-2.236v-5.252h-2.548v-3.9h6.136v9.932c.815 1.248 2.843 1.872 6.084 1.872h11.466zM163.84 17.826l-1.248-.988v8.138h-3.536V18.06a36.21 36.21 0 0 1-1.768 2.912l-1.274-4.004c1.127-1.543 2.123-3.45 2.99-5.72h-2.6V7.53h2.652V5.996l-2.08.364-.312-3.536a77.331 77.331 0 0 0 4.004-.728 39.847 39.847 0 0 0 3.718-.936l.754 3.484c-.763.225-1.612.442-2.548.65V7.53h2.34v3.718h-2.34v1.612c1.335.901 2.349 1.612 3.042 2.132l-1.794 2.834zm1.95-16.172h12.948v8.476H165.79V1.654zm3.692 5.33h5.616v-2.08h-5.616v2.08zm4.524 12.428v1.638h5.772v3.198h-15.444V21.05h5.928v-1.638h-4.732v-3.146h4.732v-1.69h-4.94v-3.198h14.014v3.198h-5.33v1.69h4.836v3.146h-4.836zM205.388 13.874h-3.926c-.85 2.01-1.811 3.64-2.886 4.888a391.504 391.504 0 0 1 6.604 2.678l-1.95 3.64a307.56 307.56 0 0 0-7.982-3.562c-1.3.78-2.89 1.46-4.771 2.041-1.88.58-4.182 1.114-6.903 1.599l-1.092-3.848c3.467-.381 6.231-.936 8.294-1.664a315.74 315.74 0 0 0-6.006-2.392 50.503 50.503 0 0 0 2.21-3.38h-4.368v-3.588h6.37a41.811 41.811 0 0 0 1.69-3.562h-3.77v2.184h-3.744V3.136h8.918l-.468-1.3c-.035-.087-.082-.2-.143-.338a8.48 8.48 0 0 1-.195-.494l4.732-.416c.277.659.615 1.508 1.014 2.548h7.956v5.772h-3.692V6.724h-10.426l3.692 1.222a73.115 73.115 0 0 1-1.066 2.34h11.908v3.588zm-10.556 3.432c.919-.867 1.69-2.01 2.314-3.432h-5.616a28.476 28.476 0 0 1-1.092 1.794l4.394 1.638zM208.04 8.284c.555-.19 2.6-1.066 6.136-2.626V4.28l-2.496 2.08a78.851 78.851 0 0 0-3.042-3.198l2.444-2.08.806.754c1.04.97 1.803 1.725 2.288 2.262V1.186h3.562v10.79h-3.562V9.48c-2.67 1.248-4.186 1.967-4.55 2.158l-1.586-3.354zm10.66-.78h4.368V6.126h-4.914V2.928h4.914V1.186h3.614v1.742h4.914v3.198h-4.914v1.378h4.394v3.146H218.7V7.504zm11.44 16.926c-1.785-.45-3.332-1.001-4.641-1.651a15 15 0 0 1-3.471-2.353l.208 2.626-7.566 2.132-1.144-2.73c.33-.139.529-.286.598-.442.07-.156.104-.468.104-.936v-.754a59.75 59.75 0 0 1-4.68 2.184l-1.404-3.484c2.912-.97 5.321-2.071 7.228-3.302h-6.916v-3.276h9.698l-.338-.572 3.38-1.17.624 1.222.26.52h9.594v3.276h-3.042l1.69 2.236c-.659.45-1.56 1.04-2.704 1.768 1.23.503 2.609.91 4.134 1.222l-1.612 3.484zm-5.668-6.552a61.614 61.614 0 0 0 3.224-2.158h-5.278c.537.745 1.222 1.465 2.054 2.158zm-6.76 3.25 3.77-1.248c-.763-.797-1.5-1.75-2.21-2.86-.433.364-.953.763-1.56 1.196v2.912z"/></g><g fill="#777676"><path d="M26.9 39.98h-.67l-1.96-3.34c-.067.007-.17.01-.31.01h-1.57v3.33h-.58v-7.56h2.1c.887 0 1.568.187 2.045.56.477.373.715.903.715 1.59 0 .54-.155.98-.465 1.32-.31.34-.758.567-1.345.68l2.04 3.41zm-3.05-3.88c.713 0 1.263-.132 1.65-.395s.58-.642.58-1.135c0-.513-.193-.908-.58-1.185-.387-.277-.937-.415-1.65-.415h-1.46v3.13h1.46zM32.26 37.02c0 .153-.017.32-.05.5h-3.97c.033.627.218 1.128.555 1.505.337.377.775.565 1.315.565.32 0 .623-.078.91-.235a1.71 1.71 0 0 0 .67-.645l.43.29c-.193.34-.467.608-.82.805-.353.197-.75.295-1.19.295-.487 0-.913-.113-1.28-.34a2.251 2.251 0 0 1-.85-.96c-.2-.413-.3-.893-.3-1.44 0-.553.097-1.04.29-1.46.193-.42.467-.745.82-.975.353-.23.767-.345 1.24-.345.447 0 .838.102 1.175.305.337.203.597.49.78.86.183.37.275.795.275 1.275zm-.57-.01c0-.573-.153-1.037-.46-1.39-.307-.353-.707-.53-1.2-.53-.487 0-.89.173-1.21.52-.32.347-.507.813-.56 1.4h3.43zM33.5 39.98v-5.26h.56l-.01.92h.04c.167-.32.392-.577.675-.77.283-.193.588-.29.915-.29.373 0 .693.11.96.33.267.22.47.533.61.94h.03c.153-.393.392-.703.715-.93.323-.227.688-.34 1.095-.34.547 0 .978.192 1.295.575.317.383.475.905.475 1.565v3.26h-.56v-3.17c0-.52-.12-.937-.36-1.25-.24-.313-.56-.47-.96-.47-.293 0-.555.073-.785.22-.23.147-.41.355-.54.625a2.13 2.13 0 0 0-.195.935v3.11h-.56v-3.17c0-.513-.122-.928-.365-1.245a1.148 1.148 0 0 0-.955-.475 1.38 1.38 0 0 0-.765.23 1.598 1.598 0 0 0-.56.635c-.137.27-.205.575-.205.915v3.11h-.55zM44.39 40.12c-.46 0-.867-.115-1.22-.345a2.288 2.288 0 0 1-.825-.975c-.197-.42-.295-.903-.295-1.45 0-.547.098-1.03.295-1.45.197-.42.472-.745.825-.975.353-.23.76-.345 1.22-.345.467 0 .877.115 1.23.345.353.23.628.555.825.975.197.42.295.903.295 1.45 0 .547-.098 1.03-.295 1.45-.197.42-.472.745-.825.975-.353.23-.763.345-1.23.345zm0-.52c.353 0 .665-.093.935-.28.27-.187.48-.45.63-.79a2.9 2.9 0 0 0 .225-1.18 2.9 2.9 0 0 0-.225-1.18 1.83 1.83 0 0 0-.63-.79 1.604 1.604 0 0 0-.935-.28 1.58 1.58 0 0 0-.93.28c-.267.187-.475.45-.625.79a2.9 2.9 0 0 0-.225 1.18c0 .447.075.84.225 1.18.15.34.358.603.625.79.267.187.577.28.93.28zM50.39 35.24h-1.56v3.28c0 .34.08.603.24.79.16.187.377.28.65.28.16 0 .343-.04.55-.12v.52c-.207.08-.427.12-.66.12-.42 0-.748-.133-.985-.4s-.355-.647-.355-1.14v-3.33h-.83v-.52h.83v-1.56h.56v1.56h1.56v.52zM55.63 37.02c0 .153-.017.32-.05.5h-3.97c.033.627.218 1.128.555 1.505.337.377.775.565 1.315.565.32 0 .623-.078.91-.235a1.71 1.71 0 0 0 .67-.645l.43.29c-.193.34-.467.608-.82.805-.353.197-.75.295-1.19.295-.487 0-.913-.113-1.28-.34a2.251 2.251 0 0 1-.85-.96c-.2-.413-.3-.893-.3-1.44 0-.553.097-1.04.29-1.46.193-.42.467-.745.82-.975.353-.23.767-.345 1.24-.345.447 0 .838.102 1.175.305.337.203.597.49.78.86.183.37.275.795.275 1.275zm-.57-.01c0-.573-.153-1.037-.46-1.39-.307-.353-.707-.53-1.2-.53-.487 0-.89.173-1.21.52-.32.347-.507.813-.56 1.4h3.43zM65.22 35.79v-3.37h.58v7.56h-.58v-3.65h-4.21v3.65h-.58v-7.56h.58v3.37zM68.77 40.12c-.52 0-.927-.127-1.22-.38-.293-.253-.44-.597-.44-1.03 0-1.1.9-1.65 2.7-1.65h.84v-.59c0-.433-.125-.772-.375-1.015-.25-.243-.598-.365-1.045-.365-.453 0-.913.187-1.38.56l-.33-.39c.247-.213.518-.38.815-.5.297-.12.608-.18.935-.18.607 0 1.08.158 1.42.475.34.317.51.755.51 1.315v3.61h-.55v-.9h-.04a1.88 1.88 0 0 1-.76.77 2.2 2.2 0 0 1-1.08.27zm.09-.51c.3 0 .588-.067.865-.2s.5-.325.67-.575c.17-.25.255-.538.255-.865v-.4h-.74c-1.493 0-2.24.37-2.24 1.11 0 .287.107.513.32.68.213.167.503.25.87.25zM74.81 40.13c-.487 0-.912-.117-1.275-.35a2.285 2.285 0 0 1-.84-.98c-.197-.42-.295-.903-.295-1.45 0-.54.098-1.018.295-1.435.197-.417.477-.738.84-.965.363-.227.788-.34 1.275-.34.387 0 .753.1 1.1.3.347.2.617.467.81.8l-.43.3a1.76 1.76 0 0 0-1.51-.88c-.36 0-.677.093-.95.28a1.855 1.855 0 0 0-.64.785c-.153.337-.23.722-.23 1.155 0 .44.075.832.225 1.175.15.343.362.61.635.8.273.19.59.285.95.285a1.76 1.76 0 0 0 1.52-.88l.43.3c-.193.34-.463.608-.81.805a2.196 2.196 0 0 1-1.1.295zM81.98 39.98h-.7L79 37.34l-.53.49v2.15h-.55v-7.56h.55v4.69l2.59-2.39h.78l-2.44 2.25zM83.63 32.71c0 .127-.04.228-.12.305a.443.443 0 0 1-.32.115.396.396 0 0 1-.3-.115.423.423 0 0 1-.11-.305c0-.133.037-.238.11-.315a.396.396 0 0 1 .3-.115c.133 0 .24.04.32.12.08.08.12.183.12.31zm-.15 2.01v5.27h-.56v-5.27h.56zM85.08 39.98v-5.26h.55v.96h.04c.167-.333.412-.6.735-.8.323-.2.678-.3 1.065-.3.587 0 1.048.19 1.385.57.337.38.505.903.505 1.57v3.26h-.55v-3.17c0-.52-.135-.937-.405-1.25-.27-.313-.622-.47-1.055-.47-.34 0-.64.08-.9.24-.26.16-.462.375-.605.645-.143.27-.215.568-.215.895v3.11h-.55zM93.2 35.24h-1.56v3.28c0 .34.08.603.24.79.16.187.377.28.65.28.16 0 .343-.04.55-.12v.52c-.207.08-.427.12-.66.12-.42 0-.748-.133-.985-.4s-.355-.647-.355-1.14v-3.33h-.83v-.52h.83v-1.56h.56v1.56h1.56v.52zM96.2 40.12c-.46 0-.867-.115-1.22-.345a2.288 2.288 0 0 1-.825-.975c-.197-.42-.295-.903-.295-1.45 0-.547.098-1.03.295-1.45.197-.42.472-.745.825-.975.353-.23.76-.345 1.22-.345.467 0 .877.115 1.23.345.353.23.628.555.825.975.197.42.295.903.295 1.45 0 .547-.098 1.03-.295 1.45-.197.42-.472.745-.825.975-.353.23-.763.345-1.23.345zm0-.52c.353 0 .665-.093.935-.28.27-.187.48-.45.63-.79a2.9 2.9 0 0 0 .225-1.18 2.9 2.9 0 0 0-.225-1.18 1.83 1.83 0 0 0-.63-.79 1.604 1.604 0 0 0-.935-.28 1.58 1.58 0 0 0-.93.28c-.267.187-.475.45-.625.79a2.9 2.9 0 0 0-.225 1.18c0 .447.075.84.225 1.18.15.34.358.603.625.79.267.187.577.28.93.28zM101.45 40.12c-.48 0-.9-.103-1.26-.31a2.07 2.07 0 0 1-.82-.84l.48-.27c.16.28.382.502.665.665.283.163.602.245.955.245.407 0 .732-.085.975-.255a.795.795 0 0 0 .365-.685c0-.26-.12-.473-.36-.64-.24-.167-.603-.307-1.09-.42-.607-.133-1.06-.32-1.36-.56-.3-.24-.45-.55-.45-.93 0-.473.168-.848.505-1.125.337-.277.792-.415 1.365-.415.433 0 .817.097 1.15.29.333.193.607.463.82.81l-.46.31a1.818 1.818 0 0 0-.645-.665 1.68 1.68 0 0 0-.875-.235c-.393 0-.707.088-.94.265a.84.84 0 0 0-.35.705c0 .253.123.465.37.635.247.17.617.312 1.11.425.573.12 1.012.303 1.315.55.303.247.455.553.455.92 0 .473-.173.847-.52 1.12-.347.273-.813.41-1.4.41zM104.46 39.98v-7.56h.55v3.26h.04c.167-.333.412-.6.735-.8.323-.2.678-.3 1.065-.3.587 0 1.048.19 1.385.57.337.38.505.903.505 1.57v3.26h-.55v-3.17c0-.52-.135-.937-.405-1.25-.27-.313-.622-.47-1.055-.47-.34 0-.64.08-.9.24-.26.16-.462.375-.605.645-.143.27-.215.568-.215.895v3.11h-.55zM114.32 32.42v7.56h-.58v-7.56zM115.88 39.98v-5.26h.55v.96h.04c.167-.333.412-.6.735-.8.323-.2.678-.3 1.065-.3.587 0 1.048.19 1.385.57.337.38.505.903.505 1.57v3.26h-.55v-3.17c0-.52-.135-.937-.405-1.25-.27-.313-.622-.47-1.055-.47-.34 0-.64.08-.9.24-.26.16-.462.375-.605.645-.143.27-.215.568-.215.895v3.11h-.55zM123.25 40.12c-.48 0-.9-.103-1.26-.31a2.07 2.07 0 0 1-.82-.84l.48-.27c.16.28.382.502.665.665.283.163.602.245.955.245.407 0 .732-.085.975-.255a.795.795 0 0 0 .365-.685c0-.26-.12-.473-.36-.64-.24-.167-.603-.307-1.09-.42-.607-.133-1.06-.32-1.36-.56-.3-.24-.45-.55-.45-.93 0-.473.168-.848.505-1.125.337-.277.792-.415 1.365-.415.433 0 .817.097 1.15.29.333.193.607.463.82.81l-.46.31a1.818 1.818 0 0 0-.645-.665 1.68 1.68 0 0 0-.875-.235c-.393 0-.707.088-.94.265a.84.84 0 0 0-.35.705c0 .253.123.465.37.635.247.17.617.312 1.11.425.573.12 1.012.303 1.315.55.303.247.455.553.455.92 0 .473-.173.847-.52 1.12-.347.273-.813.41-1.4.41zM128.66 35.24h-1.56v3.28c0 .34.08.603.24.79.16.187.377.28.65.28.16 0 .343-.04.55-.12v.52c-.207.08-.427.12-.66.12-.42 0-.748-.133-.985-.4s-.355-.647-.355-1.14v-3.33h-.83v-.52h.83v-1.56h.56v1.56h1.56v.52zM130.98 40.12c-.52 0-.927-.127-1.22-.38-.293-.253-.44-.597-.44-1.03 0-1.1.9-1.65 2.7-1.65h.84v-.59c0-.433-.125-.772-.375-1.015-.25-.243-.598-.365-1.045-.365-.453 0-.913.187-1.38.56l-.33-.39c.247-.213.518-.38.815-.5.297-.12.608-.18.935-.18.607 0 1.08.158 1.42.475.34.317.51.755.51 1.315v3.61h-.55v-.9h-.04a1.88 1.88 0 0 1-.76.77 2.2 2.2 0 0 1-1.08.27zm.09-.51c.3 0 .588-.067.865-.2s.5-.325.67-.575c.17-.25.255-.538.255-.865v-.4h-.74c-1.493 0-2.24.37-2.24 1.11 0 .287.107.513.32.68.213.167.503.25.87.25zM134.86 32.42h.55v6.65c0 .3.15.45.45.45h.32v.52h-.44c-.587 0-.88-.277-.88-.83v-6.79zM137.22 32.42h.55v6.65c0 .3.15.45.45.45h.32v.52h-.44c-.587 0-.88-.277-.88-.83v-6.79zM140.99 40.12c-.52 0-.927-.127-1.22-.38-.293-.253-.44-.597-.44-1.03 0-1.1.9-1.65 2.7-1.65h.84v-.59c0-.433-.125-.772-.375-1.015-.25-.243-.598-.365-1.045-.365-.453 0-.913.187-1.38.56l-.33-.39c.247-.213.518-.38.815-.5.297-.12.608-.18.935-.18.607 0 1.08.158 1.42.475.34.317.51.755.51 1.315v3.61h-.55v-.9h-.04a1.88 1.88 0 0 1-.76.77 2.2 2.2 0 0 1-1.08.27zm.09-.51c.3 0 .588-.067.865-.2s.5-.325.67-.575c.17-.25.255-.538.255-.865v-.4h-.74c-1.493 0-2.24.37-2.24 1.11 0 .287.107.513.32.68.213.167.503.25.87.25zM147.27 35.24h-1.56v3.28c0 .34.08.603.24.79.16.187.377.28.65.28.16 0 .343-.04.55-.12v.52c-.207.08-.427.12-.66.12-.42 0-.748-.133-.985-.4s-.355-.647-.355-1.14v-3.33h-.83v-.52h.83v-1.56h.56v1.56h1.56v.52zM148.99 32.71c0 .127-.04.228-.12.305a.443.443 0 0 1-.32.115.396.396 0 0 1-.3-.115.423.423 0 0 1-.11-.305c0-.133.037-.238.11-.315a.396.396 0 0 1 .3-.115c.133 0 .24.04.32.12.08.08.12.183.12.31zm-.15 2.01v5.27h-.56v-5.27h.56zM152.53 40.12c-.46 0-.867-.115-1.22-.345a2.288 2.288 0 0 1-.825-.975c-.197-.42-.295-.903-.295-1.45 0-.547.098-1.03.295-1.45.197-.42.472-.745.825-.975.353-.23.76-.345 1.22-.345.467 0 .877.115 1.23.345.353.23.628.555.825.975.197.42.295.903.295 1.45 0 .547-.098 1.03-.295 1.45-.197.42-.472.745-.825.975-.353.23-.763.345-1.23.345zm0-.52c.353 0 .665-.093.935-.28.27-.187.48-.45.63-.79a2.9 2.9 0 0 0 .225-1.18 2.9 2.9 0 0 0-.225-1.18 1.83 1.83 0 0 0-.63-.79 1.604 1.604 0 0 0-.935-.28 1.58 1.58 0 0 0-.93.28c-.267.187-.475.45-.625.79a2.9 2.9 0 0 0-.225 1.18c0 .447.075.84.225 1.18.15.34.358.603.625.79.267.187.577.28.93.28zM156.13 39.98v-5.26h.55v.96h.04c.167-.333.412-.6.735-.8.323-.2.678-.3 1.065-.3.587 0 1.048.19 1.385.57.337.38.505.903.505 1.57v3.26h-.55v-3.17c0-.52-.135-.937-.405-1.25-.27-.313-.622-.47-1.055-.47-.34 0-.64.08-.9.24-.26.16-.462.375-.605.645-.143.27-.215.568-.215.895v3.11h-.55zM171.2 39.98h-.77l-.78-.9c-.673.693-1.477 1.04-2.41 1.04-.413 0-.782-.088-1.105-.265a1.953 1.953 0 0 1-.76-.73 2.014 2.014 0 0 1-.275-1.045c0-.567.155-1.013.465-1.34.31-.327.745-.617 1.305-.87a4.81 4.81 0 0 1-.63-.91c-.133-.267-.2-.55-.2-.85 0-.353.08-.668.24-.945.16-.277.383-.493.67-.65a2.01 2.01 0 0 1 .98-.235c.32 0 .607.072.86.215.253.143.453.343.6.6.147.257.22.545.22.865 0 .367-.083.678-.25.935a2.136 2.136 0 0 1-.635.635 7.203 7.203 0 0 1-.965.51l1.9 2.17c.32-.453.58-.997.78-1.63l.52.17c-.233.747-.543 1.377-.93 1.89l1.17 1.34zm-4.58-5.88c0 .247.06.48.18.7.12.22.323.497.61.83.353-.153.64-.295.86-.425.22-.13.402-.293.545-.49.143-.197.215-.432.215-.705 0-.34-.107-.625-.32-.855a1.057 1.057 0 0 0-.81-.345c-.373 0-.68.122-.92.365s-.36.552-.36.925zm.66 5.49c.76 0 1.43-.31 2.01-.93l-2.07-2.38c-.5.227-.883.468-1.15.725-.267.257-.4.598-.4 1.025 0 .293.068.558.205.795.137.237.328.423.575.56.247.137.523.205.83.205zM177.75 40.12c-.54 0-1.035-.117-1.485-.35a2.821 2.821 0 0 1-1.085-.98l.48-.31c.24.353.543.623.91.81.367.187.763.28 1.19.28.373 0 .71-.063 1.01-.19.3-.127.535-.302.705-.525.17-.223.255-.475.255-.755 0-.293-.07-.537-.21-.73-.14-.193-.358-.363-.655-.51-.297-.147-.702-.293-1.215-.44a8.21 8.21 0 0 1-1.22-.435 2.12 2.12 0 0 1-.79-.625c-.207-.267-.31-.613-.31-1.04 0-.4.103-.753.31-1.06.207-.307.5-.547.88-.72.38-.173.817-.26 1.31-.26.507 0 .96.105 1.36.315.4.21.733.505 1 .885l-.46.33a2.531 2.531 0 0 0-.855-.725 2.292 2.292 0 0 0-1.065-.255c-.347 0-.665.062-.955.185-.29.123-.52.295-.69.515a1.18 1.18 0 0 0-.255.74c0 .327.088.593.265.8.177.207.4.368.67.485.27.117.628.238 1.075.365.54.147.982.308 1.325.485.343.177.608.398.795.665.187.267.28.597.28.99 0 .633-.23 1.135-.69 1.505-.46.37-1.087.555-1.88.555zM185.79 34.72v5.26h-.56v-.93h-.04a1.855 1.855 0 0 1-.735.785c-.323.19-.678.285-1.065.285-.593 0-1.057-.185-1.39-.555-.333-.37-.5-.888-.5-1.555v-3.29h.56v3.19c0 .533.132.95.395 1.25.263.3.618.45 1.065.45.333 0 .63-.078.89-.235.26-.157.462-.37.605-.64.143-.27.215-.565.215-.885v-3.13h.56zM187.28 42.35v-7.63h.55v1.04h.04c.187-.367.44-.655.76-.865.32-.21.677-.315 1.07-.315.433 0 .82.117 1.16.35.34.233.607.557.8.97.193.413.29.88.29 1.4 0 .54-.097 1.023-.29 1.45-.193.427-.46.76-.8 1s-.727.36-1.16.36c-.413 0-.777-.1-1.09-.3-.313-.2-.56-.483-.74-.85h-.04v3.39h-.55zm.53-4.99c0 .427.075.808.225 1.145.15.337.358.598.625.785.267.187.57.28.91.28.347 0 .658-.093.935-.28.277-.187.493-.448.65-.785.157-.337.235-.718.235-1.145 0-.427-.077-.808-.23-1.145a1.911 1.911 0 0 0-.645-.795 1.594 1.594 0 0 0-.935-.29c-.34 0-.645.097-.915.29-.27.193-.48.458-.63.795-.15.337-.225.718-.225 1.145zM193.19 42.35v-7.63h.55v1.04h.04c.187-.367.44-.655.76-.865.32-.21.677-.315 1.07-.315.433 0 .82.117 1.16.35.34.233.607.557.8.97.193.413.29.88.29 1.4 0 .54-.097 1.023-.29 1.45-.193.427-.46.76-.8 1s-.727.36-1.16.36c-.413 0-.777-.1-1.09-.3-.313-.2-.56-.483-.74-.85h-.04v3.39h-.55zm.53-4.99c0 .427.075.808.225 1.145.15.337.358.598.625.785.267.187.57.28.91.28.347 0 .658-.093.935-.28.277-.187.493-.448.65-.785.157-.337.235-.718.235-1.145 0-.427-.077-.808-.23-1.145a1.911 1.911 0 0 0-.645-.795 1.594 1.594 0 0 0-.935-.29c-.34 0-.645.097-.915.29-.27.193-.48.458-.63.795-.15.337-.225.718-.225 1.145zM201.19 40.12c-.46 0-.867-.115-1.22-.345a2.288 2.288 0 0 1-.825-.975c-.197-.42-.295-.903-.295-1.45 0-.547.098-1.03.295-1.45.197-.42.472-.745.825-.975.353-.23.76-.345 1.22-.345.467 0 .877.115 1.23.345.353.23.628.555.825.975.197.42.295.903.295 1.45 0 .547-.098 1.03-.295 1.45-.197.42-.472.745-.825.975-.353.23-.763.345-1.23.345zm0-.52c.353 0 .665-.093.935-.28.27-.187.48-.45.63-.79a2.9 2.9 0 0 0 .225-1.18 2.9 2.9 0 0 0-.225-1.18 1.83 1.83 0 0 0-.63-.79 1.604 1.604 0 0 0-.935-.28 1.58 1.58 0 0 0-.93.28c-.267.187-.475.45-.625.79a2.9 2.9 0 0 0-.225 1.18c0 .447.075.84.225 1.18.15.34.358.603.625.79.267.187.577.28.93.28zM204.79 39.98v-5.26h.55v1.17h.04c.207-.38.492-.693.855-.94a2.18 2.18 0 0 1 1.255-.37h.09v.6h-.13c-.413 0-.78.09-1.1.27-.32.18-.568.407-.745.68-.177.273-.265.543-.265.81v3.04h-.55zM210.84 35.24h-1.56v3.28c0 .34.08.603.24.79.16.187.377.28.65.28.16 0 .343-.04.55-.12v.52c-.207.08-.427.12-.66.12-.42 0-.748-.133-.985-.4s-.355-.647-.355-1.14v-3.33h-.83v-.52h.83v-1.56h.56v1.56h1.56v.52z"/></g></g></svg>