<?xml version="1.0" encoding="UTF-8"?>
<svg width="16px" height="13px" viewBox="0 0 16 13" version="1.1" xmlns="http://www.w3.org/2000/svg" xmlns:xlink="http://www.w3.org/1999/xlink">
    <title>编组</title>
    <g id="页面-1" stroke="none" stroke-width="1" fill="none" fill-rule="evenodd">
        <g id="编组" fill="#848D97" fill-rule="nonzero">
            <g id="AMD-Desktop" transform="translate(5.000000, 2.000000)">
                <path d="M0.05025,0 L1.6845,1.634625 L4.36575,1.634625 L4.36575,4.315875 L6,5.950125 L6,0 L0.05025,0 Z M0,3.645 L1.682625,1.962 L1.682625,4.317375 L4.037625,4.317375 L2.355,6 L0,6 L0,3.645 Z" id="形状"></path>
            </g>
            <g id="Intel-Desktop">
                <path d="M0,2 C0,2 0,0 2,0 L14,0 C14,0 16,0 16,2 L16,8 C16,8 16,10 14,10 L10,10 C10,10.667 10.083,11.167 10.25,11.5 L11,11.5 C11.2761424,11.5 11.5,11.7238576 11.5,12 C11.5,12.2761424 11.2761424,12.5 11,12.5 L5,12.5 C4.72385763,12.5 4.5,12.2761424 4.5,12 C4.5,11.7238576 4.72385763,11.5 5,11.5 L5.75,11.5 C5.917,11.167 6,10.667 6,10 L2,10 C2,10 0,10 0,8 L0,2 Z M1.398,1.145 C1.28815522,1.22147595 1.20051873,1.32567366 1.144,1.447 C1.05875912,1.62312147 1.00978925,1.81458007 1,2.01 L1,8 C1,8.325 1.078,8.502 1.145,8.602 C1.215,8.707 1.315,8.79 1.447,8.856 C1.61553684,8.93763716 1.79817127,8.98618126 1.985,8.999 L2.01,9 L14,9 C14.325,9 14.502,8.922 14.602,8.855 C14.7118448,8.77852405 14.7994813,8.67432634 14.856,8.553 C14.9376372,8.38446316 14.9861813,8.20182873 14.999,8.015 L15,7.99 L15,2 C15,1.675 14.922,1.498 14.855,1.398 C14.7785596,1.2881228 14.6743522,1.20047818 14.553,1.144 C14.3768785,1.05875912 14.1854199,1.00978925 13.99,1 L2,1 C1.675,1 1.498,1.078 1.398,1.145 Z" id="形状"></path>
            </g>
        </g>
    </g>
</svg>