<svg t="1712572013736" class="icon" viewBox="0 0 1024 1024" version="1.1" xmlns="http://www.w3.org/2000/svg" p-id="1659" xmlns:xlink="http://www.w3.org/1999/xlink" width="24" height="24" fill="#848d97"><path d="M223.509333 148.885333A32 32 0 0 0 192 181.333333v55.509334c-47.466667 5.589333-85.333333 44.949333-85.333333 93.824v362.666666c0 48.853333 37.866667 88.234667 85.333333 93.824V842.666667a32 32 0 1 0 64 0V789.333333h85.333333v53.333334a32 32 0 1 0 64 0V789.333333h85.333334v53.333334a32 32 0 1 0 64 0V789.333333h85.333333v53.333334a32 32 0 1 0 64 0V789.333333h85.333333v53.333334a32 32 0 1 0 64 0v-59.882667c36.949333-13.397333 64-48.128 64-89.450667v-362.666666c0-41.322667-27.050667-76.053333-64-89.450667V181.333333a32 32 0 1 0-64 0V234.666667h-85.333333V181.333333a32 32 0 1 0-64 0V234.666667h-85.333333V181.333333a32 32 0 1 0-64 0V234.666667h-85.333334V181.333333a32 32 0 1 0-64 0V234.666667h-85.333333V181.333333a32 32 0 0 0-32.490667-32.448zM202.666667 298.666667h16.085333a32 32 0 0 0 10.368 0h138.965333a32 32 0 0 0 10.368 0h138.965334a32 32 0 0 0 10.368 0h138.965333a32 32 0 0 0 10.368 0h138.965333a32 32 0 0 0 6.293334 0.426666c17.450667 0.597333 30.954667 13.930667 30.954666 31.573334v362.666666c0 17.664-13.525333 30.997333-30.997333 31.573334a32 32 0 0 0-6.122667 0.426666h-138.965333a32 32 0 0 0-10.368 0h-138.965333a32 32 0 0 0-10.368 0h-138.965334a32 32 0 0 0-10.368 0h-138.965333a32 32 0 0 0-10.368 0H202.666667c-18.048 0-32-13.952-32-32v-362.666666c0-18.048 13.952-32 32-32z m64 64a32 32 0 0 0 0 64 32 32 0 0 0 0-64z" p-id="1660"></path></svg>