<?xml version="1.0" encoding="UTF-8"?>
<svg width="16px" height="11px" viewBox="0 0 16 11" version="1.1" xmlns="http://www.w3.org/2000/svg" xmlns:xlink="http://www.w3.org/1999/xlink">
    <title>形状</title>
    <g id="页面-1" stroke="none" stroke-width="1" fill="none" fill-rule="evenodd">
        <g id="cloud-arrow-down-fill" fill="#FFFFFF" fill-rule="nonzero">
            <path d="M8,0 C6.68024383,0.00413851519 5.40548104,0.480135083 4.406,1.342 C3.64,2.002 3.085,2.862 2.942,3.725 C1.266,4.095 0,5.555 0,7.318 C0,9.366 1.708,11 3.781,11 L12.687,11 C14.502,11 16,9.57 16,7.773 C16,6.137 14.758,4.804 13.166,4.579 C12.923,1.999 10.69,0 8,0 Z M10.354,6.854 L8.354,8.854 C8.26019574,8.9480417 8.13282726,9.00089378 8,9.00089378 C7.86717274,9.00089378 7.73980426,8.9480417 7.646,8.854 L5.646,6.854 C5.51952798,6.72752798 5.47013504,6.543191 5.51642701,6.37042701 C5.56271898,6.19766302 5.69766302,6.06271898 5.87042701,6.01642701 C6.043191,5.97013504 6.22752798,6.01952798 6.354,6.146 L7.5,7.293 L7.5,3.5 C7.5,3.22385763 7.72385763,3 8,3 C8.27614237,3 8.5,3.22385763 8.5,3.5 L8.5,7.293 L9.646,6.146 C9.8415088,5.9504912 10.1584912,5.9504912 10.354,6.146 C10.5495088,6.3415088 10.5495088,6.6584912 10.354,6.854 L10.354,6.854 Z" id="形状"></path>
        </g>
    </g>
</svg>