<?xml version="1.0" encoding="UTF-8"?>
<svg width="16px" height="16px" viewBox="0 0 16 16" version="1.1" xmlns="http://www.w3.org/2000/svg" xmlns:xlink="http://www.w3.org/1999/xlink">
    <title>faq</title>
    <g id="页面-1" stroke="none" stroke-width="1" fill="none" fill-rule="evenodd">
        <g id="faq" transform="translate(0.000000, 0.000000)" fill="#848D97" fill-rule="nonzero">
            <path d="M8,16 C12.418278,16 16,12.418278 16,8 C16,3.581722 12.418278,0 8,0 C3.581722,0 -3.55271368e-16,3.581722 -3.55271368e-16,8 C-3.55271368e-16,10.1217319 0.842854723,12.1565632 2.34314575,13.6568542 C3.84343678,15.1571453 5.87826808,16 8,16 Z M8,14.4 C7.3372583,14.4 6.8,13.8627417 6.8,13.2 C6.8,12.5372583 7.3372583,12 8,12 C8.6627417,12 9.2,12.5372583 9.2,13.2 C9.2,13.8627417 8.6627417,14.4 8,14.4 Z M4.8,5.5952 C4.77588667,4.33861029 5.50677361,3.18980353 6.6552,2.6792 C7.66746984,2.22710534 8.84039705,2.32241133 9.7664,2.932 C10.6186183,3.49623219 11.1500418,4.43361305 11.1965378,5.4546283 C11.2430339,6.47564355 10.7990081,7.45744542 10.0016,8.0968 C9.45025779,8.52168385 9.05367936,9.11584884 8.8728,9.788 C8.76897046,10.2174566 8.33665662,10.4814295 7.9072,10.3776 C7.47774339,10.2737704 7.21377048,9.84145662 7.3176,9.412 C7.5780077,8.39588368 8.16903846,7.49526537 8.9976,6.852 C9.39704144,6.53249581 9.61964631,6.0412693 9.59654928,5.530287 C9.57345224,5.01930469 9.3074376,4.5501644 8.8808,4.268 C8.40165825,3.95438035 7.79406007,3.91197569 7.276,4.156 C6.72409599,4.42016764 6.37931207,4.98435951 6.396,5.596 C6.3673953,6.01492841 6.01976593,6.34044749 5.59986341,6.34149988 C5.17996088,6.34255226 4.83070421,6.01877976 4.8,5.6 L4.8,5.5952 Z" id="形状"></path>
        </g>
    </g>
</svg>