<?xml version="1.0" standalone="no"?><!DOCTYPE svg PUBLIC "-//W3C//DTD SVG 1.1//EN" "http://www.w3.org/Graphics/SVG/1.1/DTD/svg11.dtd"><svg t="1712572151759" class="icon" viewBox="0 0 1024 1024" version="1.1" xmlns="http://www.w3.org/2000/svg" p-id="3718" xmlns:xlink="http://www.w3.org/1999/xlink" width="16" height="16" fill="#848d97"><path d="M430.56778603 104.82427184H349.13068596V23.38717176h81.43710007v81.43710008z m-325.74351419 488.61282823H23.38717176v81.4371001h81.43710008v-81.43710008z m0-122.15320705H23.38717176v81.4371001h81.43710008V471.28389302z m0-122.15320706H23.38717176v81.43710009h81.43710008V349.13068596z m0-203.59030713c0-22.44198719 18.24968913-40.71610698 40.71610701-40.71610699h162.87420012V23.38717176H145.54037883C78.06294724 23.38717176 23.38717176 78.08249175 23.38717176 145.54037883v162.87420015h81.43710008V145.54037883z m447.89183514-122.15320707H471.28389302v81.43710008h81.4371001V23.38717176z m122.14832091 0h-81.43221394v81.43710008h81.43221394V23.38717176z m-135.58517369 472.72802519c0-13.26095216-8.71196671-16.14376784-21.95337437-16.14376784h-18.92397484v32.26799119h18.92397484c13.31469957 0 21.95337438-2.81929602 21.95337437-16.12422335zM186.26137193 186.26137193h651.48702838v651.48702838H186.26137193V186.26137193z m408.88587307 349.99825499c0 38.52712148 22.31006173 57.17747317 60.55867392 57.17747315 37.26161427 0 60.68082713-18.61126263 60.68082713-57.17747315V449.56993895h-36.93912981v86.68480184c0 19.4370183-6.56695642 25.12935776-23.74169732 25.12935775-18.01026885 0-23.73681119-8.58492738-23.73681119-25.12935775V449.56993895h-36.81697662v86.68968797z m-133.68446984 54.19204877h36.93912983v-47.75701781h26.96165587c32.08231831 0 49.86293911-19.3148651 49.8629391-46.58434705 0-27.69457508-18.24968913-46.54037189-49.8629391-46.54037188H461.46277518v140.88173674z m-152.21755435-69.86674831c0 41.11676951 26.28248402 72.85217266 69.30484354 72.85217269 33.56281516 0 58.93159322-19.44190444 62.7476594-61.95122049h-35.8641816c-6.00505165 44.64944024-59.24430541 39.20140723-59.24430541-10.9009522 0-22.90128326 9.22501019-41.9278668 32.36571375-41.92786674 12.48894391 0 23.463188 7.55395434 25.76944055 23.32149026h35.86418159c-3.65482395-37.53523749-29.70277384-55.56993697-61.63362214-55.56993697-42.74873633 0.00488614-69.3097297 32.0481154-69.30972968 74.17631345z m609.92562121 32.13606574H1000.61282824V471.28389302h-81.44198622v81.4371001zM104.82427184 878.45962117v-162.86442789H23.38717176V878.45962117c0 67.43834255 54.67577548 122.15320705 122.15320707 122.15320707h162.87420014v-81.43221397H145.54037883c-22.46641783 0-40.71610698-18.29366429-40.71610699-40.72099312z m814.34657018-2e-8c0 22.42732881-18.23991688 40.72099312-40.71122085 40.72099312h-162.87420014V1000.61282824H878.45962117c67.4823177 0 122.15320705-54.71486451 122.15320707-122.15320707v-162.86442789h-81.44198622V878.45962117z m0-203.58542098H1000.61282824v-81.4371001h-81.44198622v81.4371001z m0-244.30641412H1000.61282824V349.13068596h-81.44198622v81.43710007zM878.45962117 23.38717176h-162.87420015v81.43710008H878.45962117c22.47130397 0 40.71122085 18.26923365 40.71122085 40.71610699v162.87420014H1000.61282824V145.54037883c0-67.45788709-54.67088935-122.15320705-122.15320707-122.15320707zM349.13068596 1000.61282824h81.43710007v-81.43221395H349.13068596V1000.61282824z m244.30152801 0h81.43221392v-81.43221395h-81.43221392V1000.61282824z m-122.14832095 0h81.4371001v-81.43221395H471.28389302V1000.61282824z" p-id="3719"></path></svg>