<?xml version="1.0" encoding="UTF-8"?>
<svg width="35px" height="35px" viewBox="0 0 35 35" version="1.1" xmlns="http://www.w3.org/2000/svg" xmlns:xlink="http://www.w3.org/1999/xlink">
    <title>site-logo</title>
    <defs>
        <radialGradient cx="67.6007731%" cy="22.2430386%" fx="67.6007731%" fy="22.2430386%" r="75.3549736%" id="radialGradient-1">
            <stop stop-color="#59B5BB" offset="0%"></stop>
            <stop stop-color="#105956" offset="100%"></stop>
        </radialGradient>
        <radialGradient cx="23.2271758%" cy="7.54350189%" fx="23.2271758%" fy="7.54350189%" r="107.008904%" gradientTransform="translate(0.232272,0.075435),scale(0.856911,1.000000),translate(-0.232272,-0.075435)" id="radialGradient-2">
            <stop stop-color="#1D5794" offset="0.36%"></stop>
            <stop stop-color="#9CBB3E" offset="76.64%"></stop>
            <stop stop-color="#71AE44" offset="89.69%"></stop>
            <stop stop-color="#5B8C37" offset="91.6%"></stop>
            <stop stop-color="#243716" offset="95.77%"></stop>
            <stop stop-color="#000000" offset="98.35%"></stop>
        </radialGradient>
        <radialGradient cx="66.3873692%" cy="7.54292053%" fx="66.3873692%" fy="7.54292053%" r="88.3219595%" gradientTransform="translate(0.663874,0.075429),scale(0.856911,1.000000),translate(-0.663874,-0.075429)" id="radialGradient-3">
            <stop stop-color="#593389" offset="0%"></stop>
            <stop stop-color="#115682" offset="77.04%"></stop>
            <stop stop-color="#10537D" offset="80.65%"></stop>
            <stop stop-color="#0F4A70" offset="84.74%"></stop>
            <stop stop-color="#0C3B59" offset="89.08%"></stop>
            <stop stop-color="#072639" offset="93.57%"></stop>
            <stop stop-color="#020B11" offset="98.16%"></stop>
            <stop stop-color="#000000" offset="100%"></stop>
        </radialGradient>
        <linearGradient x1="-0.00109474173%" y1="49.9997614%" x2="100%" y2="49.9997614%" id="linearGradient-4">
            <stop stop-color="#9CBB3E" offset="0%"></stop>
            <stop stop-color="#DFEEA4" offset="100%"></stop>
        </linearGradient>
    </defs>
    <g id="页面-1" stroke="none" stroke-width="1" fill="none" fill-rule="evenodd">
        <g id="site-logo" fill-rule="nonzero">
            <path d="M17.5,0 C7.8347598,0 0,7.83545002 0,17.5 C0,11.8297902 4.59663169,7.23288239 10.2671176,7.23288239 C15.9376035,7.23288239 20.5342352,11.8295141 20.5342352,17.5 C20.5342352,23.1704859 15.9376035,27.7671177 10.2671176,27.7671177 C4.59663169,27.7671177 0,23.1704859 0,17.5 C0,27.1652402 7.83545002,35 17.5,35 C27.16455,35 35,27.16455 35,17.5 C35,7.83545002 27.16455,0 17.5,0 Z" id="路径" fill="url(#radialGradient-1)"></path>
            <path d="M28.7383178,18.0105128 C28.7343828,18.1130885 28.7296884,18.2147674 28.7231989,18.3164464 C28.7176071,18.4162628 28.7100823,18.5151135 28.701729,18.6140331 C28.7026264,18.6177582 28.701729,18.6205864 28.701729,18.6233457 C28.6942733,18.7175746 28.6858509,18.8108378 28.6765311,18.9032042 C28.6755646,18.9153449 28.6737008,18.9274857 28.6728031,18.9395575 C28.6634833,19.0346831 28.6522997,19.1289121 28.6410469,19.2221752 C28.6288968,19.3219917 28.615849,19.4218081 28.6009374,19.5206588 C28.5869232,19.6195095 28.5720115,19.7184291 28.555167,19.8172798 C28.5402553,19.9077837 28.5243772,19.9973219 28.5084991,20.0868601 C28.4935875,20.1670857 28.4777092,20.2473114 28.4608646,20.3265712 C28.4524422,20.3713403 28.4431226,20.4170751 28.4328364,20.4618442 C28.420686,20.5206166 28.4076385,20.5793889 28.3945907,20.6381613 C28.3852709,20.6792054 28.375882,20.7202494 28.3665622,20.7603278 C28.3488203,20.8340002 28.3310781,20.9086383 28.3124387,20.9823107 C28.2900021,21.0728146 28.2657706,21.1632495 28.2405727,21.2537534 C28.2358783,21.2733442 28.2302865,21.2919692 28.2246946,21.31156 C28.2032247,21.3899232 28.1807881,21.4691831 28.1574543,21.5466494 C28.1564878,21.5503744 28.1555902,21.5540995 28.1546237,21.5569277 C28.1294258,21.6417751 28.1032614,21.724829 28.0771661,21.8087797 C28.0734382,21.8199547 28.0697102,21.8311987 28.0659822,21.8432705 C28.0370566,21.9319119 28.0080617,22.02145 27.9772719,22.1100225 C27.9370933,22.2266014 27.8960173,22.3432494 27.8530772,22.4588626 C27.8278793,22.5260507 27.8026814,22.5922731 27.7765171,22.6593922 C27.7419994,22.7498961 27.7055487,22.8394343 27.6682695,22.9299382 C27.6673031,22.9318007 27.6664057,22.9346289 27.6654392,22.9373882 C27.629955,23.0223046 27.5944709,23.107152 27.5571917,23.1911027 C27.5132851,23.2918159 27.4684814,23.3916324 27.4227798,23.4905519 C27.3882621,23.5660868 27.3527779,23.640725 27.3163273,23.715363 C27.3144634,23.7181915 27.3134969,23.7219164 27.3116328,23.7246756 C27.2771151,23.7955888 27.2425286,23.8664328 27.2061468,23.9364491 C27.0343869,24.2759769 26.8495101,24.6080546 26.6506884,24.9317164 C26.6273544,24.9717946 26.6030539,25.0110453 26.577856,25.0501578 C26.5311881,25.1256927 26.4835536,25.1994339 26.4350219,25.2740031 C26.3920818,25.3411914 26.3481755,25.4074137 26.3033715,25.4736361 C26.3033715,25.4746018 26.3024048,25.4746018 26.3024048,25.4754985 C26.2491787,25.5547584 26.1950549,25.6331215 26.1399647,25.7105879 C26.0979222,25.7712229 26.0549821,25.830892 26.0111446,25.89063 C25.7684163,26.2254669 25.5107764,26.548232 25.2409862,26.8607187 C25.1840321,26.9269411 25.1261803,26.9922667 25.0673621,27.0566266 C25.0244223,27.104224 24.9814822,27.1517524 24.9375758,27.1993496 C24.901194,27.2385311 24.8647434,27.2767469 24.8283618,27.3159285 C24.7769996,27.370976 24.7247397,27.4250576 24.67248,27.4782424 C24.60807,27.5454305 24.5417961,27.6116528 24.4755222,27.6769094 C24.4726916,27.6797376 24.4699301,27.6816003 24.4680662,27.6834628 C24.4083506,27.743132 24.348566,27.8010075 24.2878839,27.858814 C24.2701419,27.8755766 24.2514333,27.8933048 24.2327937,27.9110333 C24.1758396,27.9651148 24.1179878,28.0182996 24.0600673,28.0705187 C24.0582032,28.0723812 24.0553728,28.0752094 24.053509,28.0761063 C23.9899963,28.1358443 23.9246889,28.193651 23.8593124,28.2505608 C23.4214902,28.6358233 22.9594364,28.993976 22.4758437,29.3241909 C22.4104672,29.3689601 22.3451597,29.4128324 22.2788858,29.4566356 C22.2518239,29.474364 22.2247621,29.4920922 22.1976312,29.5088549 C22.1499968,29.5405864 22.1024314,29.5713521 22.0538995,29.602118 C22.0240072,29.6207431 21.9941839,29.6394371 21.9651891,29.6571653 C21.9540054,29.6646154 21.9418551,29.6720653 21.9306714,29.6786187 C21.8774451,29.7122126 21.8242189,29.7439443 21.7710616,29.7765725 C21.6833177,29.8287915 21.5946073,29.8810797 21.5059659,29.9314363 C21.437828,29.9706178 21.36969,30.0088336 21.3005856,30.0471185 C21.2679319,30.0657436 21.2343117,30.0834718 21.2006915,30.1012 C21.135384,30.1366567 21.0691101,30.1721133 21.0037336,30.2066042 C21.0009031,30.2075009 20.9981417,30.2094324 20.9962778,30.2103291 C20.9300038,30.243923 20.8646273,30.2775172 20.7983534,30.3110423 C20.7927615,30.3138015 20.7862031,30.3166297 20.7806113,30.3194579 C20.7302154,30.3446362 20.6788531,30.3698145 20.6274908,30.3940961 C20.5658422,30.4248621 20.5042627,30.4537653 20.4417167,30.4827376 C20.3754427,30.5135033 20.3091688,30.5443381 20.2419283,30.5741382 C20.1308504,30.6244948 20.018806,30.672989 19.9058642,30.7187237 C19.8339984,30.7494896 19.7621325,30.7783929 19.6901977,30.8073652 C19.6864698,30.8092276 19.6817754,30.8110901 19.6780475,30.8120559 C19.5996233,30.8428218 19.5221656,30.8735875 19.4427749,30.9034565 C19.331697,30.9453975 19.2196526,30.9855448 19.1076773,31.0247264 C19.032981,31.0508702 18.9582848,31.0760485 18.8835885,31.1002613 C18.8602545,31.1086769 18.8369206,31.116127 18.8126201,31.1235769 C18.7444822,31.145996 18.6753778,31.1683461 18.6063425,31.1889025 C18.5886004,31.1944901 18.5718248,31.2000775 18.5540827,31.2047682 C18.4747611,31.2290498 18.3953704,31.2523657 18.3150823,31.2747157 C18.1181244,31.3316255 17.918336,31.3838446 17.7175812,31.431442 C17.660627,31.4445486 17.6046393,31.4575861 17.5476851,31.4706236 C17.4599412,31.4902142 17.3721972,31.5088394 17.2834868,31.5275333 C17.2004373,31.5443648 17.1173187,31.5611275 17.0342001,31.5760275 C16.9595038,31.5900307 16.8848076,31.6030682 16.8101803,31.6161057 C16.7112527,31.6329375 16.6122559,31.6487341 16.5133283,31.6637032 C16.4050118,31.6804656 16.2967643,31.6954346 16.1875504,31.7094379 C16.1800946,31.7094379 16.1716723,31.7104037 16.1632499,31.7121973 C16.1044318,31.7187505 16.0465802,31.7262006 15.987762,31.7327537 C15.9355023,31.7383414 15.882276,31.7439288 15.8300162,31.7495164 C15.8234579,31.7504822 15.8169686,31.7504822 15.8104102,31.7513789 C15.7571839,31.7569663 15.7039577,31.7616572 15.6508004,31.7662788 C15.6442421,31.7662788 15.6386502,31.7672446 15.6330583,31.7681413 C15.5948128,31.7709695 15.5564981,31.7737289 15.51915,31.7774539 C15.49768,31.7784196 15.47621,31.7802821 15.45474,31.7821446 C15.3856356,31.7868353 15.3174977,31.7914571 15.2484623,31.7961478 C15.2139446,31.7980103 15.1793579,31.799873 15.1448402,31.8017355 C15.13269,31.8027012 15.1205398,31.8027012 15.1084586,31.8035979 C15.0748384,31.8054604 15.0412181,31.8073229 15.0085644,31.8082886 C14.9982782,31.8092544 14.9889584,31.8092544 14.9796386,31.8092544 C14.9581686,31.8102202 14.9376651,31.8111169 14.9170926,31.8120826 C14.8863028,31.8129793 14.855513,31.8139451 14.8256207,31.8149109 C14.8041507,31.8158766 14.7826807,31.8167733 14.7612107,31.8167733 C14.7527884,31.8177391 14.7444351,31.8177391 14.7369103,31.8177391 C14.683684,31.8196016 14.6314242,31.8205673 14.5791645,31.8205673 C14.511924,31.8214643 14.4437861,31.8224298 14.3766147,31.8224298 L14.3737842,31.8224298 C14.3056463,31.8224298 14.2384059,31.8214643 14.170268,31.8205673 C14.1180082,31.8205673 14.064782,31.8196706 14.0125222,31.8177391 C13.9518401,31.8167733 13.8921245,31.8149109 13.8323399,31.8121517 C13.8108699,31.8111859 13.7902973,31.8102892 13.7688274,31.8093235 C13.7632355,31.8093235 13.7566771,31.8093235 13.7501188,31.8083577 C13.7146346,31.807461 13.678253,31.8055295 13.6418713,31.803667 C13.6297211,31.8027701 13.6166734,31.8027701 13.6045232,31.8018043 C13.570903,31.7999418 13.5363853,31.7980794 13.5027651,31.7962169 C13.4327632,31.7915262 13.3636588,31.7869043 13.2946234,31.7822136 L13.2246216,31.776626 C13.2031516,31.7747635 13.182579,31.7729011 13.161109,31.7719353 C13.1461974,31.7710386 13.1312167,31.7691071 13.1163051,31.7682104 C13.1107132,31.7673137 13.1051214,31.7663479 13.0995295,31.7663479 C12.9865876,31.7560696 12.8745432,31.7448945 12.7624988,31.7327537 C12.7326065,31.7299255 12.7027832,31.7262006 12.6737884,31.7224754 C12.6448626,31.7187505 12.6149703,31.7150255 12.5860445,31.7121973 C12.5272263,31.7047472 12.4693747,31.6972973 12.4105566,31.6888815 C12.3816307,31.6851565 12.3517384,31.6805347 12.3228126,31.6767407 C12.2938868,31.67205 12.264961,31.668325 12.2359661,31.6637032 C12.1192964,31.645975 12.003524,31.6273498 11.8877517,31.6077592 C11.7729459,31.5872716 11.6581401,31.5657491 11.5432653,31.5433993 C11.4863111,31.5322243 11.4293569,31.5200835 11.3724027,31.5079427 C11.3154486,31.4958019 11.2584944,31.4836611 11.2015402,31.4706236 C11.144586,31.457517 11.0885983,31.4444795 11.0316442,31.431442 C10.8308893,31.3839136 10.63117,31.3316255 10.4341431,31.2747157 C10.353855,31.2522966 10.2745333,31.228981 10.1951427,31.2047682 C10.1774006,31.2000775 10.160625,31.1944901 10.1428829,31.1889025 C10.0737785,31.1683461 10.0047431,31.145996 9.93660521,31.1235769 C9.91327127,31.116127 9.88897082,31.1086769 9.86563685,31.1002613 C9.79563501,31.0778421 9.72563314,31.0536296 9.65652875,31.029348 C9.53889249,30.9892007 9.42222272,30.9472599 9.30645042,30.9033877 C9.22802624,30.8735184 9.14960207,30.8427527 9.0711779,30.8119868 C9.06744998,30.8110213 9.06275557,30.8091586 9.05902767,30.8072961 C8.98716184,30.7783929 8.91529604,30.7494896 8.84336119,30.7186546 C8.73041932,30.6729199 8.61837494,30.6244258 8.50729703,30.5740692 C8.45130935,30.5488909 8.39525262,30.5237126 8.33926494,30.4975685 C8.26643265,30.4639746 8.19360033,30.4294837 8.12173451,30.3940271 C8.07037219,30.3697457 8.01997639,30.3445674 7.96861408,30.3193891 C7.89578176,30.2830358 7.82294945,30.2466134 7.75108364,30.2083976 C7.67921782,30.1710785 7.60735201,30.1337594 7.53638366,30.0945778 C7.43089762,30.037668 7.32541159,29.9788956 7.220823,29.9182609 C7.14522928,29.8753541 7.06956651,29.8305852 6.9949393,29.785816 C6.94267952,29.7550503 6.89035072,29.7233188 6.83905745,29.6906904 C6.82034885,29.6804121 6.80267581,29.669237 6.7849337,29.6570962 C6.75317746,29.6384023 6.72238768,29.6188804 6.6915979,29.598324 C6.62905187,29.5601082 6.56740329,29.5199609 6.50679022,29.4798826 C5.93828401,29.1077267 5.39870359,28.6963201 4.89087944,28.2504917 C4.82550297,28.193582 4.76019551,28.1357753 4.69668297,28.0760373 C4.69385252,28.0750715 4.69198856,28.0723123 4.6901246,28.0704496 C4.63227296,28.0182306 4.5743523,27.9650457 4.51739813,27.9109642 C4.49875858,27.893236 4.48005,27.8764733 4.4623079,27.8587451 C4.40162581,27.8009384 4.34191023,27.7430629 4.28212561,27.6833937 C4.27929516,27.6815313 4.27653373,27.6796688 4.27466979,27.6768406 C4.20839582,27.6115149 4.14212188,27.5452926 4.07771189,27.4781733 C4.02448562,27.4249885 3.9731233,27.370907 3.92183003,27.3158597 C3.8854484,27.2766781 3.84899772,27.2384623 3.81261608,27.1992807 C3.76877863,27.1516833 3.72583864,27.1041549 3.68289864,27.0565577 C3.62408051,26.9921979 3.56622887,26.9268722 3.5092747,26.8606499 C3.23858703,26.5481629 2.98184451,26.2253978 2.73911617,25.890561 C2.69527872,25.830892 2.65233871,25.7711538 2.61029617,25.7105189 C2.55520596,25.6331215 2.50108222,25.5547584 2.44785597,25.4754295 C2.44785597,25.4744637 2.44688946,25.4744637 2.44688946,25.473567 C2.40208551,25.4073447 2.35817902,25.3411223 2.31523903,25.2739342 C2.26574067,25.199296 2.2181753,25.1256236 2.17240486,25.0500887 C2.14720695,25.0109071 2.1229065,24.9717256 2.09957255,24.9316473 C1.9007507,24.6079855 1.71587399,24.2759078 1.544114,23.9363803 C1.50773237,23.8664328 1.47314565,23.7955198 1.43862796,23.7246067 C1.43676401,23.7217785 1.43490006,23.7180533 1.43393356,23.7152942 C1.39755192,23.640656 1.36206774,23.5660178 1.32748103,23.4904829 C1.2901329,23.4111542 1.25375126,23.3309974 1.21916454,23.2507718 C1.19866104,23.205037 1.17905499,23.1593711 1.15944895,23.1136363 C1.13328455,23.0548639 1.10905313,22.9960916 1.08475269,22.9373192 C1.0670106,22.8953784 1.050235,22.8524028 1.03339037,22.810462 C1.02593456,22.7927337 1.01847874,22.7741087 1.01095388,22.7563804 C0.993211793,22.7106456 0.975469703,22.6649797 0.957727615,22.6192449 C0.896079035,22.4587936 0.837329939,22.2983423 0.781273222,22.1351318 C0.769122998,22.1015377 0.757939268,22.0670469 0.746755541,22.0325561 C0.720591137,21.957918 0.696359725,21.8832798 0.673025771,21.8087107 C0.645963908,21.72476 0.620765999,21.6417061 0.595568092,21.5568587 C0.594601595,21.5540305 0.593704137,21.5503055 0.592737642,21.5456837 C0.574995552,21.4887739 0.558219958,21.4309672 0.542341826,21.3721949 C0.535783465,21.3526041 0.530191601,21.3320476 0.525566232,21.31156 C0.510654592,21.2583752 0.495673918,21.2052593 0.48165974,21.1511087 C0.449006012,21.029839 0.418147205,20.9076725 0.389221385,20.7845403 C0.378037658,20.7360462 0.366784892,20.6875522 0.355601164,20.6380923 C0.341586985,20.57932 0.3285393,20.5205476 0.317355572,20.4617753 C0.307069303,20.4170062 0.297749529,20.3712713 0.289327213,20.3265023 C0.271585125,20.2425516 0.254809532,20.158601 0.239828857,20.0736846 C0.227678633,20.012084 0.216494904,19.9496556 0.206208634,19.8871582 C0.20061677,19.8517017 0.19405841,19.8153483 0.188466546,19.778926 C0.179146771,19.7211194 0.169826997,19.6623471 0.161404683,19.6035747 C0.153948863,19.5550806 0.146493044,19.5065865 0.139934684,19.4589892 C0.138968189,19.4496767 0.137104234,19.4402952 0.136206774,19.4309827 C0.126887,19.361932 0.117567226,19.2919847 0.109144912,19.2220373 C0.0969946873,19.1287741 0.0867084181,19.0345452 0.0773886437,18.9394195 C0.0755246889,18.9272787 0.074558194,18.915138 0.0736607342,18.9030662 C0.0662049148,18.8321531 0.059646555,18.7603432 0.0540546907,18.6885333 C0.0493602858,18.640936 0.0456323761,18.5943044 0.0428709615,18.5476728 C0.0410070066,18.5364978 0.0410070066,18.524357 0.0401095469,18.5122162 C0.035415142,18.4468906 0.0307897728,18.381634 0.027061863,18.3163084 C0.0205035033,18.2146295 0.0158781339,18.1129505 0.0121502242,18.0103748 C0.0046944048,17.8266078 0,17.6428407 0,17.4572111 C0,17.2725473 0.0046944048,17.0878144 0.0121502242,16.9040473 C0.299682518,11.4947834 4.77966347,7.19626168 10.2659729,7.19626168 C11.7269684,7.19626168 13.1160289,7.50219524 14.3744056,8.05163396 C10.7495657,9.63552133 8.21500129,13.2500901 8.21500129,17.4572801 C8.21500129,21.6644701 10.7494966,25.278418 14.3744056,26.8629263 C15.6327822,27.4132616 17.0228093,27.7182985 18.4838047,27.7182985 C23.9696998,27.7184364 28.4504402,23.4210874 28.7383178,18.0112026 L28.7383178,18.0105128 Z" id="路径" fill="url(#radialGradient-2)"></path>
            <path d="M28.7383178,17.4960887 C28.7383178,17.6817177 28.7335543,17.8654843 28.7260983,18.0492509 C28.4385598,23.4594654 23.9575845,27.7570092 18.4720538,27.7570092 C17.0110268,27.7570092 15.6210387,27.4519735 14.3625659,26.9016396 C17.9884506,25.3177566 20.5230008,21.7031979 20.5230008,17.4960197 C20.5230008,13.2888415 17.9884506,9.67490368 14.3625659,8.09039994 C13.104162,7.54096273 11.7150714,7.23503004 10.2540444,7.23503004 C4.76761633,7.23503004 0.287883694,11.5333327 0,16.9427885 C0.185778183,12.0400014 2.83051116,7.76618715 6.73640942,5.31734593 C6.98100702,5.16434508 7.23023007,5.01886322 7.48325013,4.87986562 C7.65225237,4.7884652 7.82304955,4.69982403 7.99481326,4.61401113 C7.99950776,4.61214864 8.00323575,4.61028612 8.00599723,4.60842363 C8.09001508,4.56737967 8.17403293,4.52730145 8.2580508,4.48715426 C8.34579664,4.44611029 8.43354248,4.40603207 8.52225484,4.36685062 C8.61096721,4.32766915 8.69961052,4.2884877 8.78922037,4.25116874 C8.87883022,4.21384978 8.96850908,4.17653082 9.0590164,4.14107435 C9.14959276,4.10472113 9.24010008,4.07016143 9.33157393,4.03567071 C9.44921273,3.99179851 9.56774901,3.94889206 9.68725182,3.90881384 C9.93461086,3.82300093 10.1848004,3.74463801 10.438787,3.67282832 C10.6311237,3.61874686 10.8243579,3.56832142 11.019456,3.52168997 C11.0764115,3.50865249 11.1324003,3.49554602 11.1893558,3.48250852 C11.2463112,3.46947102 11.3032666,3.45733029 11.360222,3.44518956 C11.4171774,3.43304883 11.4741328,3.4209081 11.5310882,3.40973309 C11.5880436,3.3985581 11.6458965,3.38731412 11.7028519,3.37613913 C11.8755821,3.34440766 12.0482433,3.31550445 12.223735,3.28936048 C12.2816569,3.28004798 12.3395098,3.27259798 12.3983292,3.26418225 C12.4571486,3.25576652 12.5150015,3.24831652 12.5738209,3.24086653 C12.6326403,3.2343133 12.6904932,3.22686329 12.7502791,3.22037903 C13.2795847,3.16160684 13.8173128,3.13084112 14.3624968,3.13084112 C14.9076809,3.13084112 15.445409,3.16160684 15.9756811,3.22037903 C16.0345005,3.22693226 16.0923534,3.23438227 16.1511728,3.24086653 C16.1595952,3.24272902 16.1679487,3.24369477 16.1754737,3.24369477 C16.28469,3.25769799 16.3930089,3.27259798 16.5012587,3.28942945 C16.5890045,3.30246695 16.6758529,3.31647017 16.7626322,3.33047342 C17.0231083,3.37434561 17.2807538,3.42470207 17.5355689,3.48250852 C17.5925243,3.49554602 17.6485131,3.50865249 17.7054686,3.52168997 C17.9005667,3.56832142 18.0938699,3.61867788 18.2861376,3.67282832 C18.5559336,3.74932873 18.8220017,3.83327915 19.0843417,3.92467957 C19.1030507,3.93026706 19.1207932,3.9368203 19.1394331,3.94330456 C19.4082627,4.03842997 19.6743307,4.14107435 19.9357733,4.25109977 C20.2046028,4.36395339 20.4688068,4.48522277 20.7283164,4.61304538 C20.9009776,4.69885831 21.0728103,4.78839622 21.2417435,4.87979662 C25.5556497,7.23413327 28.5278933,11.7339998 28.7260293,16.9425816 C28.7336233,17.1264171 28.7383178,17.3111494 28.7383178,17.4958127 L28.7383178,17.4960887 Z" id="路径" fill="url(#radialGradient-3)"></path>
            <path d="M20.5557678,17.7102804 C20.5579811,17.6223552 20.5607477,17.5345678 20.5607477,17.4461603 C20.5607477,13.2438052 18.0215273,9.63349807 14.3889614,8.05070702 C13.1282388,7.50186369 11.7365887,7.19626168 10.2728695,7.19626168 C5.61224895,7.19626168 1.67715943,10.2834967 0.412148667,14.5162397 C0.179757407,15.4519951 0.0379019081,16.4233065 0,17.4213538 C0.288068333,12.0179518 4.77640121,7.7240884 10.2729387,7.7240884 C11.7366578,7.7240884 13.128308,8.02969041 14.3890306,8.57853372 C17.9450319,10.1273537 20.4517451,13.6205881 20.5557678,17.7093846 L20.5557678,17.7102804 Z" id="路径" fill="#171D70"></path>
            <path d="M23.3640493,28.6915888 C26.6406735,26.0540261 28.7383178,22.0089621 28.7383178,17.4728271 C28.7383178,9.52600563 22.3022838,3.08411215 14.3633075,3.08411215 C10.7195765,3.08411215 7.39324987,4.44179493 4.85981309,6.67831974 C7.32345957,4.69531104 10.453393,3.50788275 13.860762,3.50788275 C21.8000144,3.50788275 28.2357724,9.95005261 28.2357724,17.8965977 C28.2357724,22.1962144 26.3510886,26.0548554 23.3642563,28.6915888 L23.3640493,28.6915888 Z" id="路径" fill="#09808E"></path>
            <path d="M14.7354306,31.9065766 C12.4629601,31.8353936 10.2300937,31.2570389 8.23209151,30.1655179 C7.24109402,29.6241675 6.31902409,28.9669121 5.47871508,28.2134594 C5.07563721,27.8520307 4.69401728,27.4650369 4.3355112,27.0595066 C4.14031996,26.8387217 3.95175237,26.6120794 3.77056743,26.3797177 C3.68583966,26.2710481 3.60262982,26.1611378 3.52079989,26.0502629 C3.48167885,25.997272 3.44331678,25.9437983 3.40481671,25.8903939 C3.37894298,25.8544232 3.28103687,25.7562965 3.2804849,25.7133662 C2.63467717,24.7838505 2.00342771,23.7522805 1.53314721,22.7103051 C1.3451316,22.2937493 1.31139229,22.1656471 1.19333918,21.8913887 C1.08115079,21.6306364 1.02905839,21.3658875 0.932532214,21.0990023 C0.738996883,20.5639227 0.650957281,20.0142344 0.528695389,19.4583442 C0.230423291,18.2376185 0.124444586,16.9548056 0.173639129,15.7009346 C-0.0495647199,16.8774206 -0.0376283164,18.0736147 0.0968459651,19.2598858 C0.224834571,20.3889623 0.497991923,21.5047394 0.894032137,22.5695237 C1.67459014,24.6681521 2.96013391,26.6060153 4.62005299,28.1148504 C6.30646672,29.6476656 8.31999313,30.7980351 10.523881,31.4016792 C11.2731146,31.6068907 12.0349745,31.7510487 12.807046,31.8369784 C13.505705,31.9147768 14.2046401,31.9251133 14.906542,31.9099531 C14.8494129,31.9095397 14.7923528,31.9085751 14.7354306,31.9065766 C14.7139037,31.9059564 14.7920768,31.9085751 14.7354306,31.9065766 L14.7354306,31.9065766 Z" id="路径" fill="url(#linearGradient-4)"></path>
        </g>
    </g>
</svg>